name analog
datacolumns 19
datarows 22
range 0.0 0.0105
endheader
time	ground_force_vx	ground_force_vy	ground_force_vz	ground_force_px	ground_force_py	ground_force_pz	l_ground_force_vx	l_ground_force_vy	l_ground_force_vz	l_ground_force_px	l_ground_force_py	l_ground_force_pz	ground_torque_x	ground_torque_y	ground_torque_z	l_ground_torque_x	l_ground_torque_y	l_ground_torque_z
0.0	-0.0	-0.0	-0.0	-0.4408687949180603	14.968728065490724	-260.9589538574219	-0.3451269865036011	-15.1961669921875	-386.84088134765625	-0.0	-0.0	-0.0	-0.0	-0.0	-0.0	107146.1875	-17905.6015625	-926.9395751953124
0.0005	-0.0	-0.0	-0.0	0.1416382789611816	15.05253791809082	-260.8543701171875	-0.1577071249485016	-15.353252410888672	-385.4439697265625	-0.0	-0.0	-0.0	-0.0	-0.0	-0.0	107084.3046875	-18109.03125	-1126.3011474609375
0.001	-0.0	-0.0	-0.0	-0.3675068020820617	14.827611923217772	-261.2264709472656	-0.0837049111723899	-15.436359405517578	-385.4042663574219	-0.0	-0.0	-0.0	-0.0	-0.0	-0.0	107081.484375	-17778.744140625	-1035.5260009765625
0.0015	-0.0	-0.0	-0.0	-0.5244694948196411	15.04686164855957	-260.957275390625	-0.0050698965787887	-15.461342811584473	-384.4957580566406	-0.0	-0.0	-0.0	-0.0	-0.0	-0.0	107089.703125	-18045.703125	-841.30517578125
0.002	-0.0	-0.0	-0.0	-0.58067786693573	15.381272315979004	-258.9892883300781	-0.0732693076133728	-15.534367561340332	-383.4089965820313	-0.0	-0.0	-0.0	-0.0	-0.0	-0.0	106825.1328125	-18011.732421875	-953.2471923828124
0.0025	-0.0	-0.0	-0.0	-0.4460525512695312	14.9628267288208	-260.93414306640625	0.3600608110427856	-15.279651641845703	-385.0115661621094	-0.0	-0.0	-0.0	-0.0	-0.0	-0.0	106998.5859375	-17919.107421875	-897.03564453125
0.003	-0.0	-0.0	-0.0	-0.1840304285287857	14.483960151672363	-261.9928894042969	0.276695042848587	-15.118782997131348	-382.6286010742188	-0.0	-0.0	-0.0	-0.0	-0.0	-0.0	106739.5	-17890.4375	-844.8327026367188
0.0035	-0.0	-0.0	-0.0	-0.1841081380844116	14.723562240600586	-261.683837890625	0.4435539245605469	-15.539281845092772	-382.36322021484375	-0.0	-0.0	-0.0	-0.0	-0.0	-0.0	107002.765625	-18089.779296875	-865.6806640625
0.004	-0.0	-0.0	-0.0	-0.0115040093660354	14.896270751953123	-260.64678955078125	0.0162694007158279	-15.440096855163574	-383.4111633300781	-0.0	-0.0	-0.0	-0.0	-0.0	-0.0	106617.8359375	-18324.529296875	-817.5335083007812
0.0045000000000000005	-0.0	-0.0	-0.0	-0.333575576543808	14.890588760375977	-262.6277160644531	0.6987115144729614	-15.445368766784668	-382.5621948242188	-0.0	-0.0	-0.0	-0.0	-0.0	-0.0	106551.4609375	-18192.044921875	-858.1785278320312
0.005	-0.0	-0.0	-0.0	-0.4578411877155304	15.247187614440918	-261.6830139160156	0.4435539245605469	-15.097468376159668	-381.6884460449219	-0.0	-0.0	-0.0	-0.0	-0.0	-0.0	106156.140625	-18039.20703125	-950.9078979492188
0.0055	-0.0	-0.0	-0.0	0.0892105102539062	15.752239227294922	-262.3890991210937	0.1886930465698242	-15.302095413208008	-382.3654174804688	-0.0	-0.0	-0.0	-0.0	-0.0	-0.0	106411.2578125	-18078.1796875	-754.7763061523438
0.006	-0.0	-0.0	-0.0	-0.3628855645656585	15.514727592468262	-264.46002197265625	0.3605561554431915	-14.866482734680176	-381.667724609375	-0.0	-0.0	-0.0	-0.0	-0.0	-0.0	106452.625	-18083.537109375	-976.701904296875
0.006500000000000001	-0.0	-0.0	-0.0	-0.3446270823478699	15.459874153137209	-262.4852600097656	0.07138092815876	-15.191329956054688	-382.2528381347656	-0.0	-0.0	-0.0	-0.0	-0.0	-0.0	106079.15625	-18060.060546875	-1008.5219116210938
0.007	-0.0	-0.0	-0.0	-0.3630208075046539	15.18303394317627	-263.8743591308594	0.5858905911445618	-14.86133098602295	-383.3224487304688	-0.0	-0.0	-0.0	-0.0	-0.0	-0.0	106189.3359375	-18124.8125	-926.8540649414062
0.0075	-0.0	-0.0	-0.0	-0.3756114244461059	15.330429077148438	-262.765869140625	0.4198549389839172	-15.185431480407717	-381.3668212890625	-0.0	-0.0	-0.0	-0.0	-0.0	-0.0	106210.21875	-18153.767578125	-923.143798828125
0.008	-0.0	-0.0	-0.0	-0.0379264950752258	15.253929138183594	-264.48175048828125	0.0827217847108841	-15.179404258728027	-382.5994567871094	-0.0	-0.0	-0.0	-0.0	-0.0	-0.0	106101.03125	-17831.001953125	-862.0513305664062
0.0085	-0.0	-0.0	-0.0	-1.0641335248947144	15.400399208068848	-262.7911682128906	0.0947709083557128	-14.874244689941406	-381.6943054199219	-0.0	-0.0	-0.0	-0.0	-0.0	-0.0	106386.8046875	-18214.1171875	-1010.2615356445312
0.009000000000000001	-0.0	-0.0	-0.0	-0.1150917410850524	15.489295959472656	-264.0761413574219	-0.1651467978954315	-14.698062896728516	-381.9235534667969	-0.0	-0.0	-0.0	-0.0	-0.0	-0.0	106131.359375	-17887.34375	-980.7117309570312
0.0095	-0.0	-0.0	-0.0	-0.1980250030755996	15.171754837036133	-265.1346740722656	-0.2413268685340881	-14.679922103881836	-381.5983276367188	-0.0	-0.0	-0.0	-0.0	-0.0	-0.0	105870.828125	-17949.810546875	-949.0023193359376
0.01	-0.0	-0.0	-0.0	-0.10243521630764	15.508689880371094	-264.4009094238281	0.2661323547363281	-14.604333877563477	-380.8997192382813	-0.0	-0.0	-0.0	-0.0	-0.0	-0.0	106055.078125	-17926.044921875	-872.1754760742188
0.0105	-0.0	-0.0	-0.0	-0.4326848089694977	15.646883010864258	-262.8187866210937	-0.3294441699981689	-14.920042991638184	-380.9244384765625	-0.0	-0.0	-0.0	-0.0	-0.0	-0.0	105756.7421875	-18067.033203125	-1084.6072998046875
